<mxfile host="app.diagrams.net" agent="Mozilla/5.0 (Windows NT 10.0; Win64; x64) AppleWebKit/537.36 (KHTML, like Gecko) Chrome/139.0.0.0 Safari/537.36" version="28.1.0">
  <diagram name="Page-1" id="-RsRJ4XeFwav29n-fOUf">
    <mxGraphModel dx="2564" dy="2106" grid="1" gridSize="10" guides="1" tooltips="1" connect="1" arrows="1" fold="1" page="1" pageScale="1" pageWidth="827" pageHeight="1169" math="0" shadow="0">
      <root>
        <mxCell id="0" />
        <mxCell id="1" parent="0" />
        <mxCell id="n8b3Jv1mthNvMa7BXhci-2" value="AWS Cloud" style="points=[[0,0],[0.25,0],[0.5,0],[0.75,0],[1,0],[1,0.25],[1,0.5],[1,0.75],[1,1],[0.75,1],[0.5,1],[0.25,1],[0,1],[0,0.75],[0,0.5],[0,0.25]];outlineConnect=0;gradientColor=none;html=1;whiteSpace=wrap;fontSize=12;fontStyle=0;container=1;pointerEvents=0;collapsible=0;recursiveResize=0;shape=mxgraph.aws4.group;grIcon=mxgraph.aws4.group_aws_cloud;strokeColor=#232F3E;fillColor=none;verticalAlign=top;align=left;spacingLeft=30;fontColor=#232F3E;dashed=0;" vertex="1" parent="1">
          <mxGeometry x="-210" y="-1062" width="940" height="430" as="geometry" />
        </mxCell>
        <mxCell id="n8b3Jv1mthNvMa7BXhci-6" value="Amazon S3" style="sketch=0;outlineConnect=0;fontColor=#232F3E;gradientColor=none;strokeColor=#ffffff;fillColor=#232F3E;dashed=0;verticalLabelPosition=middle;verticalAlign=bottom;align=center;html=1;whiteSpace=wrap;fontSize=10;fontStyle=1;spacing=3;shape=mxgraph.aws4.productIcon;prIcon=mxgraph.aws4.s3;" vertex="1" parent="n8b3Jv1mthNvMa7BXhci-2">
          <mxGeometry x="80" y="130" width="120" height="140" as="geometry" />
        </mxCell>
        <mxCell id="n8b3Jv1mthNvMa7BXhci-8" value="" style="outlineConnect=0;dashed=0;verticalLabelPosition=bottom;verticalAlign=top;align=center;html=1;shape=mxgraph.aws3.rekognition;fillColor=#2E73B8;gradientColor=none;" vertex="1" parent="n8b3Jv1mthNvMa7BXhci-2">
          <mxGeometry x="740" y="125" width="106.5" height="150" as="geometry" />
        </mxCell>
        <mxCell id="n8b3Jv1mthNvMa7BXhci-28" value="&lt;font style=&quot;font-size: 24px;&quot;&gt;AWS Rekognition&lt;/font&gt;" style="text;html=1;align=center;verticalAlign=middle;resizable=0;points=[];autosize=1;strokeColor=none;fillColor=none;" vertex="1" parent="n8b3Jv1mthNvMa7BXhci-2">
          <mxGeometry x="690" y="283" width="210" height="40" as="geometry" />
        </mxCell>
        <mxCell id="n8b3Jv1mthNvMa7BXhci-29" value="&lt;font style=&quot;font-size: 24px;&quot;&gt;Extract Image&lt;/font&gt;" style="text;html=1;align=center;verticalAlign=middle;resizable=0;points=[];autosize=1;strokeColor=none;fillColor=none;" vertex="1" parent="n8b3Jv1mthNvMa7BXhci-2">
          <mxGeometry x="240" y="143" width="170" height="40" as="geometry" />
        </mxCell>
        <mxCell id="n8b3Jv1mthNvMa7BXhci-31" value="&lt;font style=&quot;font-size: 24px;&quot;&gt;Labeled Image&lt;/font&gt;" style="text;html=1;align=center;verticalAlign=middle;resizable=0;points=[];autosize=1;strokeColor=none;fillColor=none;" vertex="1" parent="n8b3Jv1mthNvMa7BXhci-2">
          <mxGeometry x="550" y="143" width="180" height="40" as="geometry" />
        </mxCell>
        <mxCell id="n8b3Jv1mthNvMa7BXhci-25" style="edgeStyle=orthogonalEdgeStyle;rounded=0;orthogonalLoop=1;jettySize=auto;html=1;" edge="1" parent="1" source="n8b3Jv1mthNvMa7BXhci-7" target="n8b3Jv1mthNvMa7BXhci-6">
          <mxGeometry relative="1" as="geometry" />
        </mxCell>
        <mxCell id="n8b3Jv1mthNvMa7BXhci-7" value="" style="sketch=0;outlineConnect=0;fontColor=#232F3E;gradientColor=none;fillColor=#ED7100;strokeColor=none;dashed=0;verticalLabelPosition=bottom;verticalAlign=top;align=center;html=1;fontSize=12;fontStyle=0;aspect=fixed;pointerEvents=1;shape=mxgraph.aws4.container_registry_image;" vertex="1" parent="1">
          <mxGeometry x="-520" y="-921" width="118" height="118" as="geometry" />
        </mxCell>
        <mxCell id="n8b3Jv1mthNvMa7BXhci-16" value="" style="rounded=0;orthogonalLoop=1;jettySize=auto;html=1;" edge="1" parent="1" source="n8b3Jv1mthNvMa7BXhci-10" target="n8b3Jv1mthNvMa7BXhci-9">
          <mxGeometry relative="1" as="geometry" />
        </mxCell>
        <mxCell id="n8b3Jv1mthNvMa7BXhci-19" style="edgeStyle=orthogonalEdgeStyle;rounded=0;orthogonalLoop=1;jettySize=auto;html=1;" edge="1" parent="1" source="n8b3Jv1mthNvMa7BXhci-10">
          <mxGeometry relative="1" as="geometry">
            <mxPoint x="-30" y="-422" as="targetPoint" />
          </mxGeometry>
        </mxCell>
        <mxCell id="n8b3Jv1mthNvMa7BXhci-10" value="" style="outlineConnect=0;dashed=0;verticalLabelPosition=bottom;verticalAlign=top;align=center;html=1;shape=mxgraph.aws3.cli;fillColor=#444444;gradientColor=none;" vertex="1" parent="1">
          <mxGeometry x="211.75" y="-482" width="120" height="120" as="geometry" />
        </mxCell>
        <mxCell id="n8b3Jv1mthNvMa7BXhci-22" style="edgeStyle=orthogonalEdgeStyle;rounded=0;orthogonalLoop=1;jettySize=auto;html=1;" edge="1" parent="1" source="n8b3Jv1mthNvMa7BXhci-11" target="n8b3Jv1mthNvMa7BXhci-20">
          <mxGeometry relative="1" as="geometry">
            <Array as="points">
              <mxPoint x="-360" y="-422" />
              <mxPoint x="-360" y="-572" />
            </Array>
          </mxGeometry>
        </mxCell>
        <mxCell id="n8b3Jv1mthNvMa7BXhci-23" style="edgeStyle=orthogonalEdgeStyle;rounded=0;orthogonalLoop=1;jettySize=auto;html=1;exitX=0;exitY=0.75;exitDx=0;exitDy=0;" edge="1" parent="1" source="n8b3Jv1mthNvMa7BXhci-11">
          <mxGeometry relative="1" as="geometry">
            <mxPoint x="-510.0000000000002" y="-391.57142857142844" as="targetPoint" />
          </mxGeometry>
        </mxCell>
        <mxCell id="n8b3Jv1mthNvMa7BXhci-11" value="" style="shape=image;verticalLabelPosition=bottom;labelBackgroundColor=default;verticalAlign=top;aspect=fixed;imageAspect=0;editableCssRules=.*;image=data:image/svg+xml,PHN2ZyB4bWxucz0iaHR0cDovL3d3dy53My5vcmcvMjAwMC9zdmciIGZpbGw9Im5vbmUiIHZpZXdCb3g9IjIgMiAyNy45OTk3OTk3MjgzOTM1NTUgMjgiIGhlaWdodD0iNzAwIiB3aWR0aD0iNjk5Ljk5NDk5MzIwOTgzODkiPiYjeGE7PHBhdGggZmlsbD0idXJsKCNwYWludDBfbGluZWFyXzg3XzgyMDQpIiBkPSJNMTMuMDE2NCAyQzEwLjgxOTMgMiA5LjAzODI1IDMuNzI0NTMgOS4wMzgyNSA1Ljg1MTg1VjguNTE4NTJIMTUuOTIzNVY5LjI1OTI2SDUuOTc4MTRDMy43ODEwNyA5LjI1OTI2IDIgMTAuOTgzOCAyIDEzLjExMTFMMiAxOC44ODg5QzIgMjEuMDE2MiAzLjc4MTA3IDIyLjc0MDcgNS45NzgxNCAyMi43NDA3SDguMjczMjJWMTkuNDgxNUM4LjI3MzIyIDE3LjM1NDIgMTAuMDU0MyAxNS42Mjk2IDEyLjI1MTQgMTUuNjI5NkgxOS41OTU2QzIxLjQ1NDcgMTUuNjI5NiAyMi45NjE3IDE0LjE3MDQgMjIuOTYxNyAxMi4zNzA0VjUuODUxODVDMjIuOTYxNyAzLjcyNDUzIDIxLjE4MDcgMiAxOC45ODM2IDJIMTMuMDE2NFpNMTIuMDk4NCA2Ljc0MDc0QzEyLjg1ODkgNi43NDA3NCAxMy40NzU0IDYuMTQzNzggMTMuNDc1NCA1LjQwNzQxQzEzLjQ3NTQgNC42NzEwMyAxMi44NTg5IDQuMDc0MDcgMTIuMDk4NCA0LjA3NDA3QzExLjMzNzggNC4wNzQwNyAxMC43MjEzIDQuNjcxMDMgMTAuNzIxMyA1LjQwNzQxQzEwLjcyMTMgNi4xNDM3OCAxMS4zMzc4IDYuNzQwNzQgMTIuMDk4NCA2Ljc0MDc0WiIgY2xpcC1ydWxlPSJldmVub2RkIiBmaWxsLXJ1bGU9ImV2ZW5vZGQiLz4mI3hhOzxwYXRoIGZpbGw9InVybCgjcGFpbnQxX2xpbmVhcl84N184MjA0KSIgZD0iTTE4Ljk4MzQgMzBDMjEuMTgwNSAzMCAyMi45NjE2IDI4LjI3NTUgMjIuOTYxNiAyNi4xNDgyVjIzLjQ4MTVMMTYuMDc2MyAyMy40ODE1TDE2LjA3NjMgMjIuNzQwOEwyNi4wMjE3IDIyLjc0MDhDMjguMjE4OCAyMi43NDA4IDI5Ljk5OTggMjEuMDE2MiAyOS45OTk4IDE4Ljg4ODlWMTMuMTExMUMyOS45OTk4IDEwLjk4MzggMjguMjE4OCA5LjI1OTI4IDI2LjAyMTcgOS4yNTkyOEwyMy43MjY2IDkuMjU5MjhWMTIuNTE4NUMyMy43MjY2IDE0LjY0NTkgMjEuOTQ1NSAxNi4zNzA0IDE5Ljc0ODUgMTYuMzcwNEwxMi40MDQyIDE2LjM3MDRDMTAuNTQ1MSAxNi4zNzA0IDkuMDM4MDkgMTcuODI5NiA5LjAzODA5IDE5LjYyOTZMOS4wMzgwOSAyNi4xNDgyQzkuMDM4MDkgMjguMjc1NSAxMC44MTkyIDMwIDEzLjAxNjIgMzBIMTguOTgzNFpNMTkuOTAxNSAyNS4yNTkzQzE5LjE0MDkgMjUuMjU5MyAxOC41MjQ0IDI1Ljg1NjIgMTguNTI0NCAyNi41OTI2QzE4LjUyNDQgMjcuMzI5IDE5LjE0MDkgMjcuOTI1OSAxOS45MDE1IDI3LjkyNTlDMjAuNjYyIDI3LjkyNTkgMjEuMjc4NSAyNy4zMjkgMjEuMjc4NSAyNi41OTI2QzIxLjI3ODUgMjUuODU2MiAyMC42NjIgMjUuMjU5MyAxOS45MDE1IDI1LjI1OTNaIiBjbGlwLXJ1bGU9ImV2ZW5vZGQiIGZpbGwtcnVsZT0iZXZlbm9kZCIvPiYjeGE7PGRlZnM+JiN4YTs8bGluZWFyR3JhZGllbnQgZ3JhZGllbnRVbml0cz0idXNlclNwYWNlT25Vc2UiIHkyPSIyMi43NDA3IiB4Mj0iMTIuNDgwOSIgeTE9IjIiIHgxPSIxMi40ODA5IiBpZD0icGFpbnQwX2xpbmVhcl84N184MjA0Ij4mI3hhOzxzdG9wIHN0b3AtY29sb3I9IiMzMjdFQkQiLz4mI3hhOzxzdG9wIHN0b3AtY29sb3I9IiMxNTY1QTciIG9mZnNldD0iMSIvPiYjeGE7PC9saW5lYXJHcmFkaWVudD4mI3hhOzxsaW5lYXJHcmFkaWVudCBncmFkaWVudFVuaXRzPSJ1c2VyU3BhY2VPblVzZSIgeTI9IjMwIiB4Mj0iMTkuNTE5IiB5MT0iOS4yNTkyOCIgeDE9IjE5LjUxOSIgaWQ9InBhaW50MV9saW5lYXJfODdfODIwNCI+JiN4YTs8c3RvcCBzdG9wLWNvbG9yPSIjRkZEQTRCIi8+JiN4YTs8c3RvcCBzdG9wLWNvbG9yPSIjRjlDNjAwIiBvZmZzZXQ9IjEiLz4mI3hhOzwvbGluZWFyR3JhZGllbnQ+JiN4YTs8L2RlZnM+JiN4YTs8L3N2Zz4=;" vertex="1" parent="1">
          <mxGeometry x="-150" y="-482" width="120" height="120" as="geometry" />
        </mxCell>
        <mxCell id="n8b3Jv1mthNvMa7BXhci-17" style="edgeStyle=orthogonalEdgeStyle;rounded=0;orthogonalLoop=1;jettySize=auto;html=1;" edge="1" parent="1" source="n8b3Jv1mthNvMa7BXhci-9" target="n8b3Jv1mthNvMa7BXhci-10">
          <mxGeometry relative="1" as="geometry" />
        </mxCell>
        <mxCell id="n8b3Jv1mthNvMa7BXhci-9" value="" style="outlineConnect=0;dashed=0;verticalLabelPosition=bottom;verticalAlign=top;align=center;html=1;shape=mxgraph.aws3.iam;fillColor=#759C3E;gradientColor=none;" vertex="1" parent="1">
          <mxGeometry x="223.5" y="-672" width="96.5" height="100" as="geometry" />
        </mxCell>
        <mxCell id="n8b3Jv1mthNvMa7BXhci-13" style="edgeStyle=orthogonalEdgeStyle;rounded=0;orthogonalLoop=1;jettySize=auto;html=1;entryX=0.08;entryY=0.11;entryDx=0;entryDy=0;entryPerimeter=0;" edge="1" parent="1" source="n8b3Jv1mthNvMa7BXhci-6" target="n8b3Jv1mthNvMa7BXhci-9">
          <mxGeometry relative="1" as="geometry" />
        </mxCell>
        <mxCell id="n8b3Jv1mthNvMa7BXhci-15" style="edgeStyle=orthogonalEdgeStyle;rounded=0;orthogonalLoop=1;jettySize=auto;html=1;entryX=0.92;entryY=0.11;entryDx=0;entryDy=0;entryPerimeter=0;" edge="1" parent="1" source="n8b3Jv1mthNvMa7BXhci-8" target="n8b3Jv1mthNvMa7BXhci-9">
          <mxGeometry relative="1" as="geometry" />
        </mxCell>
        <mxCell id="n8b3Jv1mthNvMa7BXhci-18" style="edgeStyle=orthogonalEdgeStyle;rounded=0;orthogonalLoop=1;jettySize=auto;html=1;entryX=0.145;entryY=0.5;entryDx=0;entryDy=0;entryPerimeter=0;" edge="1" parent="1" source="n8b3Jv1mthNvMa7BXhci-11" target="n8b3Jv1mthNvMa7BXhci-10">
          <mxGeometry relative="1" as="geometry" />
        </mxCell>
        <mxCell id="n8b3Jv1mthNvMa7BXhci-20" value="" style="sketch=0;outlineConnect=0;fontColor=#232F3E;gradientColor=none;fillColor=#232F3D;strokeColor=none;dashed=0;verticalLabelPosition=bottom;verticalAlign=top;align=center;html=1;fontSize=12;fontStyle=0;aspect=fixed;pointerEvents=1;shape=mxgraph.aws4.source_code;" vertex="1" parent="1">
          <mxGeometry x="-660" y="-662" width="86.23" height="118" as="geometry" />
        </mxCell>
        <mxCell id="n8b3Jv1mthNvMa7BXhci-24" value="&lt;font style=&quot;font-size: 18px;&quot;&gt;Generated Screen With Labels&lt;/font&gt;" style="whiteSpace=wrap;html=1;" vertex="1" parent="1">
          <mxGeometry x="-750" y="-442" width="240" height="110" as="geometry" />
        </mxCell>
        <mxCell id="n8b3Jv1mthNvMa7BXhci-26" value="&lt;font style=&quot;font-size: 24px;&quot;&gt;Upload Image&lt;/font&gt;" style="text;html=1;align=center;verticalAlign=middle;resizable=0;points=[];autosize=1;strokeColor=none;fillColor=none;" vertex="1" parent="1">
          <mxGeometry x="-390" y="-906" width="170" height="40" as="geometry" />
        </mxCell>
        <mxCell id="n8b3Jv1mthNvMa7BXhci-27" value="&lt;font style=&quot;font-size: 24px;&quot;&gt;S3 Bucket&lt;/font&gt;" style="text;html=1;align=center;verticalAlign=middle;resizable=0;points=[];autosize=1;strokeColor=none;fillColor=none;" vertex="1" parent="1">
          <mxGeometry x="-165" y="-769" width="130" height="40" as="geometry" />
        </mxCell>
        <mxCell id="n8b3Jv1mthNvMa7BXhci-30" style="edgeStyle=orthogonalEdgeStyle;rounded=0;orthogonalLoop=1;jettySize=auto;html=1;exitX=0.92;exitY=0.11;exitDx=0;exitDy=0;exitPerimeter=0;entryX=0;entryY=0.5;entryDx=0;entryDy=0;entryPerimeter=0;" edge="1" parent="1" source="n8b3Jv1mthNvMa7BXhci-9" target="n8b3Jv1mthNvMa7BXhci-8">
          <mxGeometry relative="1" as="geometry">
            <Array as="points">
              <mxPoint x="312" y="-862" />
            </Array>
          </mxGeometry>
        </mxCell>
        <mxCell id="n8b3Jv1mthNvMa7BXhci-32" value="&lt;font style=&quot;font-size: 24px;&quot;&gt;IAM&lt;/font&gt;" style="text;html=1;align=center;verticalAlign=middle;resizable=0;points=[];autosize=1;strokeColor=none;fillColor=none;" vertex="1" parent="1">
          <mxGeometry x="320" y="-632" width="70" height="40" as="geometry" />
        </mxCell>
        <mxCell id="n8b3Jv1mthNvMa7BXhci-33" value="&lt;font style=&quot;font-size: 24px;&quot;&gt;User authentication&amp;nbsp;&lt;/font&gt;&lt;div&gt;&lt;font style=&quot;font-size: 24px;&quot;&gt;&amp;amp;&lt;/font&gt;&lt;/div&gt;&lt;div&gt;&lt;font style=&quot;font-size: 24px;&quot;&gt;&amp;nbsp;Access&lt;/font&gt;&lt;/div&gt;" style="text;html=1;align=center;verticalAlign=middle;resizable=0;points=[];autosize=1;strokeColor=none;fillColor=none;" vertex="1" parent="1">
          <mxGeometry x="331.75" y="-569" width="240" height="100" as="geometry" />
        </mxCell>
        <mxCell id="n8b3Jv1mthNvMa7BXhci-34" value="&lt;font style=&quot;font-size: 24px;&quot;&gt;AWS CLI&lt;/font&gt;" style="text;html=1;align=center;verticalAlign=middle;resizable=0;points=[];autosize=1;strokeColor=none;fillColor=none;" vertex="1" parent="1">
          <mxGeometry x="211.75" y="-352" width="120" height="40" as="geometry" />
        </mxCell>
        <mxCell id="n8b3Jv1mthNvMa7BXhci-35" value="&lt;span style=&quot;font-size: 24px;&quot;&gt;Access to AWS&amp;nbsp;&lt;/span&gt;&lt;div&gt;&lt;span style=&quot;font-size: 24px;&quot;&gt;using CLI&lt;/span&gt;&lt;/div&gt;" style="text;html=1;align=center;verticalAlign=middle;resizable=0;points=[];autosize=1;strokeColor=none;fillColor=none;" vertex="1" parent="1">
          <mxGeometry y="-494" width="190" height="70" as="geometry" />
        </mxCell>
        <mxCell id="n8b3Jv1mthNvMa7BXhci-36" value="&lt;font style=&quot;font-size: 24px;&quot;&gt;Output&lt;/font&gt;" style="text;html=1;align=center;verticalAlign=middle;resizable=0;points=[];autosize=1;strokeColor=none;fillColor=none;" vertex="1" parent="1">
          <mxGeometry x="-310" y="-479" width="100" height="40" as="geometry" />
        </mxCell>
        <mxCell id="n8b3Jv1mthNvMa7BXhci-38" value="&lt;font style=&quot;font-size: 24px;&quot;&gt;Labels&lt;/font&gt;" style="text;html=1;align=center;verticalAlign=middle;resizable=0;points=[];autosize=1;strokeColor=none;fillColor=none;" vertex="1" parent="1">
          <mxGeometry x="-660" y="-522" width="90" height="40" as="geometry" />
        </mxCell>
      </root>
    </mxGraphModel>
  </diagram>
</mxfile>
